PathFileType	4	(X/Y/Z)	C:/Users/CLatella/Desktop/xsens/7Novembre/Claudia/Claudia mvnx and c3d/Claudia-022.trc	
DataRate	CameraRate	NumFrames	NumMarkers	Units	OrigDataRate	OrigDataStartFrame	OrigNumFrames	
240.00	240.00	4	64	mm	240.00	418	1113	
Frame#	Time	pHipOrigin			pRightASI			pLeftASI			pRightCSI			pLeftCSI			pRightIschialTub			pLeftIschialTub			pSacrum			pL5SpinalProcess			pL3SpinalProcess			pT12SpinalProcess			pPX			pIJ			pT4SpinalProcess			pT8SpinalProcess			pC7SpinalProcess			pTopOfHead			pRightAuricularis			pLeftAuricularis			pBackOfHead			pRightAcromion			pLeftAcromion			pRightArmLatEpicondyle			pRightArmMedEpicondyle			pLeftArmLatEpicondyle			pLeftArmMedEpicondyle			pRightUlnarStyloid			pRightRadialStyloid			pRightOlecranon			pLeftUlnarStyloid			pLeftRadialStyloid			pLeftOlecranon			pRightTopOfHand			pRightPinky			pRightBallHand			pLeftTopOfHand			pLeftPinky			pLeftBallHand			pRightGreaterTrochanter			pRightKneeLatEpicondyle			pRightKneeMedEpicondyle			pRightPatella			pLeftGreaterTrochanter			pLeftKneeLatEpicondyle			pLeftKneeMedEpicondyle			pLeftPatella			pRightLatMalleolus			pRightMedMalleolus			pRightTibialTub			pLeftLatMalleolus			pLeftMedMalleolus			pLeftTibialTub			pRightHeelFoot			pRightFirstMetatarsal			pRightFifthMetatarsal			pRightPivotFoot			pRightHeelCenter			pRightToe			pLeftHeelFoot			pLeftFirstMetatarsal			pLeftFifthMetatarsal			pLeftPivotFoot			pLeftHeelCenter			pLeftToe			
		X1	Y1	Z1	X2	Y2	Z2	X3	Y3	Z3	X4	Y4	Z4	X5	Y5	Z5	X6	Y6	Z6	X7	Y7	Z7	X8	Y8	Z8	X9	Y9	Z9	X10	Y10	Z10	X11	Y11	Z11	X12	Y12	Z12	X13	Y13	Z13	X14	Y14	Z14	X15	Y15	Z15	X16	Y16	Z16	X17	Y17	Z17	X18	Y18	Z18	X19	Y19	Z19	X20	Y20	Z20	X21	Y21	Z21	X22	Y22	Z22	X23	Y23	Z23	X24	Y24	Z24	X25	Y25	Z25	X26	Y26	Z26	X27	Y27	Z27	X28	Y28	Z28	X29	Y29	Z29	X30	Y30	Z30	X31	Y31	Z31	X32	Y32	Z32	X33	Y33	Z33	X34	Y34	Z34	X35	Y35	Z35	X36	Y36	Z36	X37	Y37	Z37	X38	Y38	Z38	X39	Y39	Z39	X40	Y40	Z40	X41	Y41	Z41	X42	Y42	Z42	X43	Y43	Z43	X44	Y44	Z44	X45	Y45	Z45	X46	Y46	Z46	X47	Y47	Z47	X48	Y48	Z48	X49	Y49	Z49	X50	Y50	Z50	X51	Y51	Z51	X52	Y52	Z52	X53	Y53	Z53	X54	Y54	Z54	X55	Y55	Z55	X56	Y56	Z56	X57	Y57	Z57	X58	Y58	Z58	X59	Y59	Z59	X60	Y60	Z60	X61	Y61	Z61	X62	Y62	Z62	X63	Y63	Z63	X64	Y64	Z64	

418	1.737	17.05221	215.34359	937.34381	123.11381	102.52445	954.39603	107.90936	341.78338	941.88403	144.81183	127.91800	1030.52387	132.14146	327.42362	1020.07081	-51.10385	161.01935	941.09213	-57.43904	260.74577	935.86560	-17.47456	216.50504	1001.17083	58.65328	222.36509	1032.21325	141.38027	226.06061	1109.76651	217.82487	227.32765	1174.43821	381.64227	234.87708	1110.61120	477.09243	232.44860	1184.31055	369.18306	225.11034	1286.09590	297.06751	226.69413	1235.04484	412.94865	226.32458	1316.92714	682.08854	235.61619	1373.57428	580.56716	161.75846	1357.41955	580.77833	300.76304	1334.61288	551.31971	238.88937	1392.26308	421.18440	44.24073	1307.68833	383.38444	424.14082	1267.35430	217.71928	-50.68150	1046.20346	208.32209	11.93127	1031.52694	156.53193	459.03714	1017.06159	162.28639	396.05482	1002.12111	239.99803	1.21424	796.43868	277.05888	33.25974	806.62777	194.85982	-37.79995	1034.32498	157.27103	366.01547	773.10407	207.16064	363.69257	776.53563	134.25319	431.10952	1008.50909	366.49061	-33.31253	662.60784	291.73539	-36.16336	708.37957	261.11532	2.79804	762.65101	266.71140	355.40403	612.71824	238.78378	398.58889	683.72513	193.75116	384.65148	740.16110	37.90554	63.56305	918.44384	22.54271	45.61335	528.88259	7.07429	119.10153	520.22450	55.69686	93.60240	525.18706	0.31676	366.96575	907.19888	-52.63485	358.46604	520.64684	-42.81531	283.65803	514.99797	-5.54329	324.25602	514.73400	10.61144	36.11057	119.10153	14.30697	96.03089	116.03952	78.23957	81.09040	492.77202	-60.39546	375.57104	112.97751	-51.84295	316.17866	108.80685	15.52121	329.85211	484.95862	-33.47091	64.77729	14.57093	133.51408	85.57783	6.28239	125.70068	8.23574	10.76982	151.67495	45.66614	7.65502	8.13016	60.13149	7.60223	218.08884	38.90861	6.28239	-101.52138	340.19958	7.76060	66.57226	348.22415	-0.21117	45.66614	423.08495	4.85698	77.65884	390.61712	1.47821	-61.24015	351.86688	0.95028	142.06658	408.67240	0.42235 
419	1.742	17.10501	215.44918	937.34381	123.11381	102.57725	954.29044	108.01495	341.88896	941.77845	144.97021	127.97079	1030.36549	132.35263	327.47641	1019.91243	-51.05105	161.12494	941.19772	-57.33345	260.85135	935.97119	-17.31618	216.61063	1001.22362	58.81166	222.41788	1032.16046	141.69703	226.11341	1109.55533	218.19442	227.38045	1174.17425	381.95903	234.92988	1110.08327	477.51477	232.44860	1183.67703	369.71100	225.16313	1285.62076	297.54265	226.74693	1234.67529	413.52938	226.37737	1316.39921	682.66927	235.72178	1372.88797	581.20068	161.81125	1356.78603	581.35906	300.81583	1333.92656	551.90044	238.94216	1391.62957	421.76512	44.29352	1307.21319	383.91237	424.14082	1266.87916	217.71928	-50.68150	1046.15066	208.32209	11.93127	1031.47414	156.58472	459.14273	1017.00880	162.28639	396.10761	1002.06831	239.83965	1.21424	796.38589	276.90050	33.20694	806.52219	194.85982	-37.79995	1034.32498	157.05986	366.06826	773.05128	206.89667	363.79815	776.43005	134.30598	431.21511	1008.45630	366.43782	-33.25974	662.60784	291.62981	-36.11057	708.27399	260.95694	2.79804	762.54543	266.55302	355.35124	612.66544	238.57261	398.58889	683.61955	193.53998	384.70427	740.05551	37.95833	63.66864	918.44384	22.64830	45.66614	528.88259	7.17988	119.20712	520.22450	55.80245	93.70798	525.18706	0.42235	367.01854	907.19888	-52.52926	358.41324	520.59405	-42.76252	283.65803	514.99797	-5.43770	324.25602	514.73400	10.66423	36.21616	119.10153	14.35976	96.13647	116.03952	78.29236	81.24878	492.77202	-60.34266	375.51825	112.97751	-51.79016	316.17866	108.80685	15.57400	329.85211	484.95862	-33.41812	64.83009	14.57093	133.51408	85.68341	6.28239	125.75348	8.34133	10.76982	151.67495	45.82452	7.65502	8.18295	60.23708	7.60223	218.08884	39.06699	6.28239	-101.46859	340.14679	7.76060	66.62506	348.11856	-0.21117	45.77173	422.97937	4.85698	77.71164	390.51153	1.47821	-61.18735	351.86688	0.95028	142.17217	408.51402	0.42235 
420	1.746	17.15780	215.50197	937.34381	123.16661	102.63004	954.13206	108.06774	341.94176	941.62007	145.12859	128.02358	1030.20711	132.51101	327.52920	1019.75405	-50.99826	161.23053	941.30331	-57.28066	260.95694	936.07678	-17.21059	216.71621	1001.27642	59.02283	222.52347	1032.10766	141.96100	226.16620	1109.39695	218.56398	227.43324	1173.85749	382.22299	234.98267	1109.60813	477.88433	232.50139	1183.04351	370.29172	225.16313	1285.14562	297.96499	226.79972	1234.30574	414.11010	226.37737	1315.81849	683.24999	235.88016	1372.20166	581.78140	161.91684	1356.09972	581.88699	300.86862	1333.24025	552.48116	238.99496	1390.94325	422.29305	44.39911	1306.73805	384.44031	424.19361	1266.40402	217.77208	-50.68150	1046.09787	208.32209	11.87848	1031.36856	156.58472	459.19552	1017.00880	162.28639	396.16040	1001.96273	239.68127	1.21424	796.28030	276.74212	33.20694	806.41660	194.85982	-37.79995	1034.27219	156.84869	366.12106	772.99849	206.73829	363.85095	776.32446	134.30598	431.26790	1008.45630	366.38502	-33.20694	662.55505	291.52422	-36.05778	708.16840	260.85135	2.85083	762.49263	266.39464	355.29844	612.61265	238.36144	398.58889	683.51396	193.32881	384.70427	740.00272	37.95833	63.72143	918.44384	22.75388	45.77173	528.88259	7.28547	119.25991	520.22450	55.90803	93.81357	525.18706	0.52793	367.12413	907.14609	-52.42368	358.41324	520.59405	-42.65693	283.65803	515.05076	-5.38491	324.20323	514.73400	10.71703	36.26895	119.10153	14.41255	96.18927	116.03952	78.45074	81.35437	492.77202	-60.28987	375.51825	112.97751	-51.73737	316.12587	108.80685	15.67959	329.85211	484.90583	-33.36532	64.88288	14.57093	133.56687	85.78900	6.28239	125.80627	8.44692	10.76982	151.78054	45.87732	7.65502	8.23574	60.28987	7.60223	218.14163	39.17258	6.28239	-101.41580	340.14679	7.76060	66.67785	348.06577	-0.21117	45.82452	422.92657	4.85698	77.81722	390.45874	1.47821	-61.13456	351.81409	0.95028	142.22496	408.40843	0.47514 
421	1.750	17.21059	215.60755	937.34381	123.21940	102.68283	954.02647	108.17333	341.99455	941.51448	145.23418	128.07638	1030.04873	132.72218	327.58200	1019.64846	-50.94547	161.33611	941.40889	-57.22786	261.06253	936.18236	-17.05221	216.76901	1001.27642	59.18121	222.57626	1032.05487	142.22496	226.21899	1109.29137	218.93353	227.43324	1173.64632	382.48696	234.98267	1109.13299	478.25388	232.50139	1182.40999	370.76686	225.16313	1284.67048	298.44013	226.79972	1233.93618	414.69083	226.37737	1315.29055	683.83072	235.93295	1371.56814	582.41492	161.91684	1355.46620	582.41492	300.92142	1332.60673	553.00909	239.04775	1390.30973	422.82099	44.39911	1306.26291	384.96824	424.19361	1265.92888	217.77208	-50.68150	1046.04508	208.37488	11.87848	1031.31576	156.58472	459.19552	1016.95601	162.28639	396.21320	1001.90994	239.52289	1.21424	796.22751	276.63653	33.20694	806.31101	194.91261	-37.79995	1034.21939	156.69031	366.17385	772.99849	206.52712	363.90374	776.21887	134.30598	431.26790	1008.40350	366.33223	-33.15415	662.55505	291.41863	-36.00498	708.11561	260.74577	2.85083	762.38705	266.18347	355.24565	612.55986	238.15026	398.58889	683.46117	193.17043	384.75707	739.89713	38.01113	63.82702	918.44384	22.91226	45.87732	528.88259	7.44385	119.36549	520.22450	56.06641	93.86636	525.18706	0.63352	367.17692	907.14609	-52.37089	358.41324	520.59405	-42.60414	283.60524	515.05076	-5.27932	324.20323	514.73400	10.87541	36.32174	119.15432	14.51814	96.29485	116.09231	78.60912	81.40716	492.77202	-60.23708	375.46546	112.97751	-51.68457	316.07307	108.80685	15.73238	329.79931	484.90583	-33.25974	64.98847	14.62372	133.67246	85.78900	6.28239	125.91186	8.44692	10.76982	151.88613	45.87732	7.65502	8.34133	60.39546	7.60223	218.19442	39.11978	6.28239	-101.36300	340.04120	7.76060	66.73064	348.11856	-0.21117	45.82452	422.92657	4.85698	77.81722	390.51153	1.47821	-61.08177	351.76130	0.95028	142.22496	408.51402	0.47514 
